<svg xmlns="http://www.w3.org/2000/svg" viewBox="0 0 88 28"><path d="M37.77,0,23,10.92a12.48,12.48,0,0,0-4.55-6.77,13.21,13.21,0,0,0-7.92-2.67H0V26.54H10.57a12.89,12.89,0,0,0,8-2.6A12.08,12.08,0,0,0,23,17.1L37.77,28,52.5,17.1v9.44H69.12V21.45h-11v-20h-6V10.9l-14,10.91-3-2.54,6.8-5.09L49.1,8.73,44.94,5.46,31,16l-3-2.54,14-10.18L37.77,0ZM5.66,6.55h4.53a6.66,6.66,0,0,1,2.71.57,7.38,7.38,0,0,1,2.29,1.6,7.76,7.76,0,0,1,1.59,2.42,8.07,8.07,0,0,1,0,5.92,7.7,7.7,0,0,1-1.5,2.44A7.05,7.05,0,0,1,13,21.2a6.79,6.79,0,0,1-2.88.63H5.66V6.56ZM88,21.45v5.09H71.38V1.46h6.05v20H88Z"/></svg>