<svg width="88" height="28" viewBox="0 0 88 28" fill="none" xmlns="http://www.w3.org/2000/svg">
<path d="M37.7697 0.0169595L23.0354 10.9219C22.3429 8.23967 20.7425 5.85551 18.4864 4.14518C16.2303 2.43484 13.4469 1.49559 10.5748 1.47546H0V26.5415H10.5748C13.4622 26.579 16.2754 25.6612 18.5436 23.9417C20.8119 22.2221 22.3976 19.8051 23.0354 17.0951L37.7697 28L52.5039 17.0951V26.5415H69.124V21.4537H58.1614V1.4585H52.1162V10.9049L38.1398 21.8098L35.126 19.2659L41.9291 14.1781L49.1023 8.7341L44.9429 5.46093L30.9666 15.9927L27.9527 13.4488L41.9291 3.27316L37.7697 0V0.0169595ZM5.65752 6.54633H10.1871C11.1244 6.54808 12.0503 6.74478 12.9013 7.12295C13.7657 7.50551 14.5441 8.04708 15.1925 8.71714C15.8749 9.42241 16.4131 10.2452 16.7787 11.1423C17.5303 13.049 17.5303 15.1545 16.7787 17.0612C16.4368 17.9556 15.9292 18.7831 15.2806 19.5033C14.6502 20.2113 13.8766 20.7883 13.007 21.1993C12.1113 21.6154 11.1289 21.83 10.1342 21.8268H5.65752V6.56329V6.54633ZM87.9824 21.4537V26.5415H71.3799V1.4585H77.4252V21.4537H88H87.9824Z" fill="white"/>
</svg>
