<svg id="Layer_1" data-name="Layer 1" xmlns="http://www.w3.org/2000/svg" viewBox="0 0 119.92 21.88"><title>eb</title><path d="M58.82,21.5V11h-2.2V7.5h2.2V2.6l3.7-.9V7.5h2.8V11h-2.8V21.5Z"/><path d="M19,21.5l-5.6-14h3.9l3.6,9.5,3.6-9.5h3.9l-5.6,14Z"/><path d="M66.62,21.5V.8l3.6-.8V8.5a6.31,6.31,0,0,1,3.9-1.3,7.3,7.3,0,1,1,0,14.6,6.12,6.12,0,0,1-3.9-1.3v.9l-3.6.1Zm3.5-6.8a4,4,0,0,0,4,3.8A3.9,3.9,0,0,0,78,14.6a4,4,0,0,0-3.9-3.9,4,4,0,0,0-4,3.8Z"/><path d="M91,2.6A2.39,2.39,0,0,1,93.52.2a2.31,2.31,0,0,1,2.4,2.4A2.31,2.31,0,0,1,93.52,5,2.39,2.39,0,0,1,91,2.6Zm.6,18.9V7.5h3.6v14Z"/><path d="M90.42,7.5a7.37,7.37,0,0,0-4.1,1.2V7.5h-3.6v14h3.6V14.6c0-2.2.5-3.4,4.1-3.5Z"/><path d="M98.72,21.5V11.1h-2.2V7.5h2.2V2.6h3.7V7.5h2.8v3.6h-2.8V21.5Z"/><path d="M37.82,16.8a3.72,3.72,0,0,1-2.4,1.6,3.79,3.79,0,0,1-4.1-1.6l7.2-1.7,1.2-.3,2.2-.5a7.72,7.72,0,0,0-.2-1.5,7.34,7.34,0,1,0-5.5,8.8,7.19,7.19,0,0,0,5-4.1Zm-4.2-6.1a3.86,3.86,0,0,1,4.1,1.6l-7.1,1.6A4,4,0,0,1,33.62,10.7Z"/><path d="M115.82,16.8a3.72,3.72,0,0,1-2.4,1.6,3.79,3.79,0,0,1-4.1-1.6l7.2-1.6,1.2-.3,2.2-.5a7.72,7.72,0,0,0-.2-1.5,7.34,7.34,0,1,0-5.5,8.8,7.19,7.19,0,0,0,5-4.1Zm-4.1-6.1a3.86,3.86,0,0,1,4.1,1.6l-7.1,1.6A4,4,0,0,1,111.72,10.7Z"/><path d="M10.62,16.8a3.72,3.72,0,0,1-2.4,1.6,3.79,3.79,0,0,1-4.1-1.6l7.2-1.7,1.2-.3,2.2-.5a7.72,7.72,0,0,0-.2-1.5,7.53,7.53,0,0,0-8.9-5.4,7.26,7.26,0,0,0-5.4,8.8A7.35,7.35,0,0,0,9,21.7a7.19,7.19,0,0,0,5-4.1Zm-4.2-6.1a3.86,3.86,0,0,1,4.1,1.6l-7.1,1.6A4,4,0,0,1,6.42,10.7Z"/><path d="M52.42,21.5V14c0-2.7-1.4-3.3-2.9-3.3s-2.9.6-2.9,3.2v7.5H43V7.4h3.6v1a6.93,6.93,0,0,1,3.7-1.2c3.1,0,5.7,1.8,5.7,6.2v8.1Z"/></svg>