<svg id="Layer_1" data-name="Layer 1" xmlns="http://www.w3.org/2000/svg" xmlns:xlink="http://www.w3.org/1999/xlink" viewBox="0 0 24 24"><defs><style>.cls-1{clip-rule:evenodd;}.cls-2{fill-rule:evenodd;}.cls-3{clip-path:url(#clip-path);}.cls-4{fill:#fff;}</style><clipPath id="clip-path"><polygon class="cls-1" points="201.85 -22.9 196 -27.82 196 -23.85 179.85 -23.85 179.85 -21.92 196 -21.92 196 -18 201.85 -22.9"/></clipPath></defs><title>24-fb</title><polygon class="cls-2" points="201.85 -22.9 196 -27.82 196 -23.85 179.85 -23.85 179.85 -21.92 196 -21.92 196 -18 201.85 -22.9"/><g class="cls-3"><rect x="-997.15" y="-6103.82" width="1440" height="8007"/></g><path class="cls-4" d="M16,6h1V2H16a5.76,5.76,0,0,0-6,6V9H7v4h3v9h4V13h2l1-4H14V8C14,7,14.26,6,16,6Z"/></svg>