<svg xmlns="http://www.w3.org/2000/svg" viewBox="0 0 110 25"><path d="M20,4.6c-3.9,0-6.4,2.6-6.4,6.2,0,3.8,2.5,6.3,6.6,6.3a7.18,7.18,0,0,0,5.1-1.9l-1.9-1.8a5,5,0,0,1-3.2,1.1c-2.1,0-3.4-1.1-3.5-2.5h9.4C26.6,7,24,4.6,20,4.6ZM16.8,9.5a3.37,3.37,0,0,1,3.4-2.3c1.7,0,2.9.8,3.1,2.3ZM32,14.3c-.9,0-1.5-.5-1.5-1.7V7.5h3.3V5H30.5V1.7l-3,.3V12.7c0,3,1.7,4.4,4.3,4.3a7.42,7.42,0,0,0,2.5-.5L33.4,14A3.19,3.19,0,0,1,32,14.3ZM54.4,4.6A3.52,3.52,0,0,0,51,6.3L50.8,5H48V16.9h3V10.7a2.77,2.77,0,0,1,3-3,3,3,0,0,1,2,.6l1.3-2.5A3.9,3.9,0,0,0,54.4,4.6Zm8.7.1a6,6,0,0,0-6.2,6.2,6.2,6.2,0,1,0,12.4,0A5.93,5.93,0,0,0,63.1,4.7Zm.1,9.7A3.23,3.23,0,0,1,60,10.9a3.29,3.29,0,0,1,3.2-3.5,3.35,3.35,0,0,1,3.2,3.5A3.23,3.23,0,0,1,63.2,14.4ZM79.5,11a3.19,3.19,0,0,1-3.1,3.4c-1.9,0-2.9-1.4-2.9-3.2V5h-3v6.2c0,3.7,2.1,5.8,4.9,5.8a5.54,5.54,0,0,0,4.1-1.8l.2,1.6h2.6V5H79.4ZM90.8,4.7a5.28,5.28,0,0,0-3.9,1.8l-.2-1.6H84.1V16.8H87V10.7a3.19,3.19,0,0,1,3.1-3.4C92,7.3,93,8.7,93,10.5v6.2h3V10.5C95.9,6.9,93.7,4.7,90.8,4.7ZM107.1,0V6.6a5.08,5.08,0,0,0-3.9-1.9c-3.5,0-6.1,2.1-6.1,6.2a5.8,5.8,0,0,0,6.1,6.2,4.24,4.24,0,0,0,3.8-1.9l.2,1.6H110V0Zm-3.7,14.3a3.34,3.34,0,0,1-3.4-3.5,3.25,3.25,0,0,1,3.4-3.4,3.46,3.46,0,0,1,3.5,3.4A3.36,3.36,0,0,1,103.4,14.3Zm-59-9.2c-1.4-.8-4.2-.8-5.8-.5a4.13,4.13,0,0,0-3.2,3.8l2.8.6c.3-1.3.6-1.8,1.9-2a3.2,3.2,0,0,1,2.8.6c.4.4.4.5.4,1.2,0,.3-.6.4-1,.5-1.3.3-3.4.5-4.7.8A3.35,3.35,0,0,0,36,15.4c1.3,1.6,4.6,2,6.4.8a7,7,0,0,1,.9-.6v1.1h3.1v-3c0-1.8.1-3.6,0-5.4A3.89,3.89,0,0,0,44.4,5.1Zm-2.3,9c-.4.2-.8.3-1.2.5a4.88,4.88,0,0,1-1.7.1,1.7,1.7,0,0,1-1-.6.84.84,0,0,1-.2-.7,1.42,1.42,0,0,1,.2-.6,1.47,1.47,0,0,1,.6-.5,7,7,0,0,1,2.5-.5l1.4-.2h.4c.1,0,.1,0,.1.1a1.27,1.27,0,0,1-.1.6,1.42,1.42,0,0,1-.2.6A2.8,2.8,0,0,1,42.1,14.1Zm-35.8,3A5.88,5.88,0,0,1,.1,10.9,5.93,5.93,0,0,1,6.3,4.7h7.4a3.82,3.82,0,0,1-2.1,2.7H6.3A3.37,3.37,0,0,0,3,10.9a3.21,3.21,0,1,0,6.4,0A3.47,3.47,0,0,0,8.3,8.3h3.5a5.75,5.75,0,0,1,.5,2.6,6.18,6.18,0,0,1-2.1,4.8,4,4,0,0,1,2.1,3.8c0,3.4-2.6,5.5-6.1,5.5S.3,23.1,0,20.2l3-.3a3,3,0,0,0,3.2,2.4c1.8,0,3.1-.9,3.1-2.7C9.5,17.8,7.9,17.1,6.3,17.1Z" style="fill:#fff"/></svg>