<?xml version="1.0" encoding="UTF-8"?>
<svg width="80px" height="29px" viewBox="0 0 80 29" version="1.1" xmlns="http://www.w3.org/2000/svg" xmlns:xlink="http://www.w3.org/1999/xlink">
    <!-- Generator: Sketch 54.1 (76490) - https://sketchapp.com -->
    <title>Group</title>
    <desc>Created with Sketch.</desc>
    <g id="Page-1" stroke="none" stroke-width="1" fill="none" fill-rule="evenodd">
        <g id="Artboard" transform="translate(-1637.000000, -975.000000)" fill="#FFFFFF">
            <g id="Group" transform="translate(1637.000000, 975.000000)">
                <path d="M4,8.5 L13,8.5 L13,0 L17,0 L17,20 L13,20 L13,12.5 L4,12.5 L4,20 L0,20 L0,0 L4,0 L4,8.5 Z" id="Combined-Shape"></path>
                <path d="M25,24 L35,24 L35,27 L25,27 L21,27 L21,8 L25,8 L35,8 L35,11 L25,11 L25,16 L34,16 L34,19 L25,19 L25,24 Z" id="Combined-Shape"></path>
                <path d="M69.5,29 C63.7010101,29 59,24.2989899 59,18.5 C59,12.7010101 63.7010101,8 69.5,8 C75.2989899,8 80,12.7010101 80,18.5 C80,24.2989899 75.2989899,29 69.5,29 Z M69.5,25 C73.0898509,25 76,22.0898509 76,18.5 C76,14.9101491 73.0898509,12 69.5,12 C65.9101491,12 63,14.9101491 63,18.5 C63,22.0898509 65.9101491,25 69.5,25 Z" id="Combined-Shape"></path>
                <path d="M56.8178431,4.09107844 L53.1281109,5.93594454 C51.9494089,4.74080367 50.3112164,4 48.5,4 C44.9101491,4 42,6.91014913 42,10.5 C42,14.0898509 44.9101491,17 48.5,17 C50.6065159,17 52.4789891,15.9979442 53.6667514,14.4445009 L56.9995208,16.6663472 C55.0909291,19.2925556 51.994862,21 48.5,21 C42.7010101,21 38,16.2989899 38,10.5 C38,4.70101013 42.7010101,0 48.5,0 C51.8860635,0 54.8977754,1.60279025 56.8178431,4.09107844 Z" id="Combined-Shape"></path>
            </g>
        </g>
    </g>
</svg>