<?xml version="1.0" encoding="utf-8"?>
<!-- Generator: Adobe Illustrator 21.0.2, SVG Export Plug-In . SVG Version: 6.00 Build 0)  -->
<svg version="1.1" id="Layer_1" xmlns="http://www.w3.org/2000/svg" xmlns:xlink="http://www.w3.org/1999/xlink" x="0px" y="0px"
	 viewBox="0 0 451.1 67.2" style="enable-background:new 0 0 451.1 67.2;" xml:space="preserve">
<title>hellosign</title>
<path d="M70.4,0.7L33.6,50.3L0,0.8C1.8-0.1,67.2-0.3,70.4,0.7z M21.3,11.8L34,30.6l13.9-18.8H21.3z"/>
<path d="M246.8,33.6c-0.3-11.8,7.9-23.3,23.2-23.2s22.8,11.1,22.7,23.4c0,13.3-9.8,23.1-23.2,23.1S246.8,47.3,246.8,33.6z M281,33.5
	c0-0.9,0-1.9-0.1-2.8c-0.4-5-4.1-9.2-9-10.3c-4.6-0.9-9.2,1.2-11.5,5.2c-2.9,4.9-2.9,11.1,0,16c2.9,5.2,9.5,7,14.7,4.1
	c1.5-0.8,2.7-2,3.6-3.3C280.4,39.7,281.2,36.6,281,33.5z"/>
<path d="M450.3,57.1c-9-7.5-17.5-15.8-26.9-23.8v22.5h-10.6c-0.1-0.9-0.2-1.8-0.3-2.8c0-13.1,0-26.3,0-39.4c0.2-1.1,0.5-2.1,1-3.1
	c1,0.4,2,0.9,2.9,1.6c7.3,6.5,14.5,13.1,21.8,19.7c0.5,0.5,1.2,0.9,2.2,1.7V11.4H451v45.1L450.3,57.1z"/>
<path d="M391.5,39.8H383v-8.9h18.6c0.2,0.6,0.3,1.2,0.3,1.7c0,6,0.1,12,0,18c0,0.9-0.5,1.7-1.2,2.3c-8.2,4.8-20.7,5.9-29.3,0.1
	c-7.6-5.1-10.8-12.5-10-21.5c0.8-9.6,6-16.4,15.2-19.6c7.6-2.7,15.1-1.7,22.4,1.6c0.6,0.3,1.1,0.7,1.6,1.1l-4.3,8.2
	c-2.4-0.8-4.9-1.5-7.4-2c-5.4-0.8-10.5,0-13.9,5c-2.9,4.2-2.9,11.4,0,15.7s8.2,6.5,13.9,5.3c1.7-0.3,2.9-1.1,2.7-3.1
	C391.4,42.6,391.5,41.4,391.5,39.8z"/>
<path d="M85.4,11.4h10.5v16.8h16.6V11.4h10.7v44.4h-10.6V38.5H96v17.3H85.4V11.4z"/>
<path d="M135.8,11.3h28.3V21h-17.5v7.4h15.9v9.3h-15.9V46h17.6v9.8h-28.4V11.3z"/>
<path d="M329.8,14.2l-2.6,9.4l-3.1-1.6c-2.4-1.4-5.2-2.1-8-1.9c-1.7,0.2-3.3,0.7-3.7,2.6s0.6,3.2,2.2,4s3.5,1.7,5.2,2.5
	c1.2,0.6,2.4,1.1,3.6,1.7c6,3.5,8.2,7.6,7.1,14.3c-1,5.9-4.8,9.4-10.5,10.9c-7.4,1.9-14-0.3-20.6-3.9l3-9.8c1,0.5,1.7,0.9,2.4,1.3
	c3.3,2,7.1,2.9,10.9,2.9c1.8-0.1,3.3-0.7,3.8-2.5c0.6-1.7-0.1-3.6-1.7-4.4c-2-1.2-4.2-2-6.2-3.1c-1.9-0.9-3.7-2-5.4-3.1
	c-6.2-4.3-7-15.6,1.2-20.5C313.4,9.3,323.6,9.7,329.8,14.2z"/>
<path d="M186.4,46.2h17.9v9.7h-28.4V11.4h10.5L186.4,46.2z"/>
<path d="M223.6,46.1h17.5v9.7H213V11.4h10.6V46.1z"/>
<path d="M60,55.8v10.7c-1.8,0.8-46.3,1-49.3,0.2V55.8H60z"/>
<path d="M351.4,11.4v44.4h-10.5V11.4H351.4z"/>
</svg>
