<svg id="Layer_1" data-name="Layer 1" xmlns="http://www.w3.org/2000/svg" viewBox="0 0 162.88 23.97"><defs><style>.cls-1{fill:#fff;}</style></defs><title>hellosign-white</title><path class="cls-1" d="M12.17,17.9,0,0H25.4ZM7.48,4l4.82,7.09L17.55,4Z"/><rect class="cls-1" x="3.9" y="20" width="17.74" height="3.96"/><path class="cls-1" d="M40.77,20V13.58H34.6V20H30.89V4H34.6v6.24h6.16V4h3.71V20Z"/><path class="cls-1" d="M49.06,20V4H59.19V7.39H52.77v2.83h5.86v3.26H52.77v3.13h6.42V20Z"/><path class="cls-1" d="M63.56,20V4h3.71V16.61h6.42V20Z"/><path class="cls-1" d="M76.92,20V4h3.71V16.61h6.42V20Z"/><path class="cls-1" d="M97.33,20.27c-5,0-8.13-3.56-8.13-8.26a8,8,0,0,1,8.29-8.29c5,0,8.13,3.56,8.13,8.28A8,8,0,0,1,98,20.27ZM97.39,7c-2.53,0-4.24,2.08-4.24,5s1.71,5,4.24,5,4.24-2.1,4.24-5-1.71-5-4.24-5Z"/><path class="cls-1" d="M113.62,20.27a10.79,10.79,0,0,1-5.39-1.64l1-3.36a8,8,0,0,0,4.48,1.55c1.3,0,1.82-.61,1.82-1.4s-.42-1.4-2.87-2.38c-2.82-1.13-3.8-2.78-3.8-4.7,0-2.34,1.9-4.61,5.63-4.61A8.78,8.78,0,0,1,119,5l-.94,3.31A7.21,7.21,0,0,0,114.51,7c-1.35,0-1.9.65-1.9,1.3,0,1,.81,1.4,2.82,2.25,3,1.27,3.91,2.71,3.91,4.76C119.32,17.84,117.46,20.27,113.62,20.27Z"/><path class="cls-1" d="M123.12,20V4h3.71V20Z"/><path class="cls-1" d="M145,11v7.65A11.54,11.54,0,0,1,139,20.27,8.1,8.1,0,0,1,130.55,12c0-4.9,3.75-8.29,8.6-8.29a11.2,11.2,0,0,1,5.37,1.37l-1.55,3a7.82,7.82,0,0,0-3.58-.9c-3.19,0-4.89,2-4.89,4.81a4.61,4.61,0,0,0,4.68,5,4.66,4.66,0,0,0,2.36-.44V14.14h-3.21V11Z"/><path class="cls-1" d="M162.48,20.3l-9.66-8.67V20h-3.69V3.77l.5-.09,9.53,8.61V4h3.71V20.27Z"/></svg>