<?xml version="1.0" encoding="utf-8"?>
<!-- Generator: Adobe Illustrator 23.0.4, SVG Export Plug-In . SVG Version: 6.00 Build 0)  -->
<svg version="1.1" id="Layer_1" xmlns="http://www.w3.org/2000/svg" xmlns:xlink="http://www.w3.org/1999/xlink" x="0px" y="0px"
	 viewBox="0 0 137.8 31.5" style="enable-background:new 0 0 137.8 31.5;" xml:space="preserve">
<style type="text/css">
	.st0{fill:#FFFFFF;}
</style>
<title>ideo-dark</title>
<g>
	<g id="Layer_1-2">
		<polygon class="st0" points="29,6.4 29,1.3 17,1.3 11.9,1.3 0,1.3 0,6.4 11.9,6.4 11.9,25.2 0,25.2 0,30.3 11.9,30.3 17,30.3 
			29,30.3 29,25.2 17.1,25.2 17.1,6.4 		"/>
		<polygon class="st0" points="101.2,6.3 101.2,1.3 93.5,1.3 72,1.3 72,6.3 72,25.2 72,30.3 93.7,30.3 101.2,30.3 101.2,25.2 
			77.3,25.2 77.3,18.3 96,18.3 96,13.2 77.3,13.2 77.3,6.3 		"/>
		<path class="st0" d="M50.8,1.3H36.6v29h13.9c9-0.1,15.2-6.4,15.2-14.5S59.6,1.5,50.8,1.3z M50.5,25.3h-8.4l0,0h-0.3v-19h8.8
			c5.7,0.1,9.4,4.1,9.4,9.5S56.3,25.2,50.5,25.3L50.5,25.3z"/>
		<path class="st0" d="M121.8,0c-8.7,0.1-15.7,7.2-15.6,15.9s7.2,15.7,15.9,15.6c8.6-0.1,15.6-7.1,15.6-15.8
			C137.7,7,130.6,0,121.8,0C121.8,0,121.8,0,121.8,0z M121.8,26.1c-5.7-0.1-10.3-4.7-10.2-10.4c0.1-5.7,4.7-10.3,10.4-10.2
			c5.7,0.1,10.2,4.7,10.2,10.3C132.2,21.5,127.6,26.1,121.8,26.1z"/>
	</g>
</g>
</svg>
