<svg id="Layer_1" data-name="Layer 1" xmlns="http://www.w3.org/2000/svg" xmlns:xlink="http://www.w3.org/1999/xlink" viewBox="0 0 24 24"><defs><style>.cls-1{clip-rule:evenodd;}.cls-2{fill-rule:evenodd;}.cls-3{clip-path:url(#clip-path);}.cls-4{fill:#fff;}</style><clipPath id="clip-path"><polygon class="cls-1" points="201.85 15.1 196 10.18 196 14.15 179.85 14.15 179.85 16.08 196 16.08 196 20 201.85 15.1"/></clipPath></defs><title>24-insta</title><polygon class="cls-2" points="201.85 15.1 196 10.18 196 14.15 179.85 14.15 179.85 16.08 196 16.08 196 20 201.85 15.1"/><g class="cls-3"><rect x="-997.15" y="-6065.82" width="1440" height="8007"/></g><path class="cls-4" d="M12,4.62c2.4,0,2.69,0,3.64.05A5,5,0,0,1,17.31,5,3,3,0,0,1,19,6.69a5,5,0,0,1,.31,1.67c0,.95.05,1.23.05,3.64s0,2.69-.05,3.64A5,5,0,0,1,19,17.31,3,3,0,0,1,17.31,19a5,5,0,0,1-1.67.31c-.95,0-1.23.05-3.64.05s-2.69,0-3.64-.05A5,5,0,0,1,6.69,19,3,3,0,0,1,5,17.31a5,5,0,0,1-.31-1.67c0-.95-.05-1.23-.05-3.64s0-2.69.05-3.64A5,5,0,0,1,5,6.69,3,3,0,0,1,6.69,5a5,5,0,0,1,1.67-.31c.95,0,1.23-.05,3.64-.05M12,3c-2.44,0-2.75,0-3.71.05a6.61,6.61,0,0,0-2.18.42A4.6,4.6,0,0,0,3.47,6.1a6.61,6.61,0,0,0-.42,2.18C3,9.25,3,9.56,3,12s0,2.75.05,3.71a6.61,6.61,0,0,0,.42,2.18A4.6,4.6,0,0,0,6.1,20.53a6.61,6.61,0,0,0,2.18.42c1,0,1.27.05,3.71.05s2.75,0,3.71-.05a6.61,6.61,0,0,0,2.18-.42,4.6,4.6,0,0,0,2.63-2.63,6.61,6.61,0,0,0,.42-2.18c0-1,.05-1.27.05-3.71s0-2.75-.05-3.71a6.61,6.61,0,0,0-.42-2.18A4.6,4.6,0,0,0,17.9,3.47a6.61,6.61,0,0,0-2.18-.42C14.75,3,14.44,3,12,3Z"/><path class="cls-4" d="M12,7.38A4.62,4.62,0,1,0,16.62,12,4.62,4.62,0,0,0,12,7.38ZM12,15a3,3,0,1,1,3-3A3,3,0,0,1,12,15Z"/><circle class="cls-4" cx="16.8" cy="7.2" r="1.08"/></svg>