<?xml version="1.0" encoding="UTF-8"?>
<svg width="448px" height="80px" viewBox="0 0 448 80" version="1.1" xmlns="http://www.w3.org/2000/svg" xmlns:xlink="http://www.w3.org/1999/xlink">
    <!-- Generator: Sketch 43.1 (39012) - http://www.bohemiancoding.com/sketch -->
    <title>logo-full-white</title>
    <desc>Created with Sketch.</desc>
    <defs></defs>
    <g id="Page-1" stroke="none" stroke-width="1" fill="none" fill-rule="evenodd">
        <g id="slide" transform="translate(-136.000000, -304.000000)" fill="#FFFFFF">
            <g id="logo-full-white" transform="translate(136.000000, 304.000000)">
                <g id="nest">
                    <path d="M38.6470695,55.0744609 L51.1194539,67.0518341 L40.71492,77.4672432 C37.341,80.8445405 31.86972,80.8445405 28.4958,77.4672432 L2.53044,51.4758919 C-0.84348,48.0975135 -0.84348,42.6218378 2.53044,39.2445405 C5.90544,35.8672432 11.37564,35.8672432 14.74956,39.2445405 L34.60536,59.1202162 L38.6470695,55.0744609 Z M41.889204,51.8290811 L52.9362,40.771027 L65.15424,53.0023784 L54.9821048,63.1851459 L41.889204,51.8290811 Z" id="Combined-Shape"></path>
                    <path d="M91.8722889,62.9553144 L78.8535174,51.524415 L109.447092,20.9002162 C112.821012,17.5229189 118.291212,17.5229189 121.666212,20.9002162 C125.040132,24.2775135 125.040132,29.7531892 121.666212,33.1315676 L91.8722889,62.9553144 Z M87.8235081,67.0081481 L77.375412,77.4667027 C74.000412,80.844 68.530212,80.844 65.156292,77.4667027 L20.861172,33.1272432 C17.487252,29.7488649 17.487252,24.2731892 20.861172,20.8958919 C24.235092,17.5175135 29.705292,17.5175135 33.080292,20.8958919 L71.265852,59.1196757 L75.5606808,54.8205477 L87.8235081,67.0081481 Z" id="Combined-Shape"></path>
                    <path d="M73.0987482,48.7199201 L85.2599906,36.4317143 L107.925264,59.1196757 L127.776744,39.2483243 C131.151744,35.871027 136.621944,35.871027 139.995864,39.2483243 C143.369784,42.6267027 143.369784,48.1023784 139.995864,51.4796757 L114.034824,77.4667027 C110.660904,80.844 105.190704,80.844 101.816784,77.4667027 L73.0987482,48.7199201 Z M68.0606821,43.6768109 L39.190824,14.7780541 C35.816904,11.4007568 35.816904,5.92508108 39.190824,2.54778378 C42.565824,-0.830594595 48.036024,-0.830594595 51.409944,2.54778378 L80.3097461,31.4765147 L68.0606821,43.6768109 Z" id="Combined-Shape"></path>
                    <path d="M103.335912,2.55189189 C99.961992,-0.825405405 94.491792,-0.825405405 91.116792,2.55189189 L52.935552,40.7713514 L65.154672,53.0027027 L103.335912,14.7832432 C106.709832,11.4048649 106.709832,5.92918919 103.335912,2.55189189" id="bg"></path>
                </g>
                <g id="lattice" transform="translate(176.000000, 8.000000)">
                    <path d="M11.255,0.525 L0.63,0.525 L0.63,63 L39.56,63 L39.56,53.565 L11.255,53.565 L11.255,0.525 Z M62.555,19.31 C69.015,19.31 73.35,21.945 75.73,25.175 L76.24,20.16 L85.42,20.16 L85.42,63 L76.24,63 L75.73,57.985 C73.35,61.215 69.015,63.85 62.555,63.85 C50.91,63.85 43.005,54.415 43.005,41.58 C43.005,28.66 50.91,19.31 62.555,19.31 Z M64.765,28.32 C58.135,28.32 53.375,33.505 53.375,41.58 C53.375,49.655 58.135,54.84 64.765,54.84 C69.865,54.84 72.925,52.12 75.22,48.465 L75.22,34.695 C72.925,31.04 69.865,28.32 64.765,28.32 Z M111.135,5.795 L100.935,5.795 L100.935,20.16 L92.86,20.16 L92.86,28.83 L100.935,28.83 L100.935,47.87 C100.935,58.24 107.14,63.85 116.915,63.85 C121.165,63.85 124.31,62.66 126.435,61.3 L123.715,53.31 C122.44,54.075 120.57,54.67 117.85,54.67 C113.855,54.67 111.135,52.12 111.135,47.785 L111.135,28.83 L124.055,28.83 L124.055,20.16 L111.135,20.16 L111.135,5.795 Z M146.285,5.795 L136.085,5.795 L136.085,20.16 L128.01,20.16 L128.01,28.83 L136.085,28.83 L136.085,47.87 C136.085,58.24 142.29,63.85 152.065,63.85 C156.315,63.85 159.46,62.66 161.585,61.3 L158.865,53.31 C157.59,54.075 155.72,54.67 153,54.67 C149.005,54.67 146.285,52.12 146.285,47.785 L146.285,28.83 L159.205,28.83 L159.205,20.16 L146.285,20.16 L146.285,5.795 Z M178.63,20.16 L168.43,20.16 L168.43,63 L178.63,63 L178.63,20.16 Z M173.53,0.185 C169.96,0.185 167.24,2.82 167.24,6.475 C167.24,10.13 169.96,12.765 173.53,12.765 C177.185,12.765 179.905,10.13 179.905,6.475 C179.905,2.82 177.185,0.185 173.53,0.185 Z M209.445,19.31 C196.27,19.31 187.515,28.66 187.515,41.58 C187.515,54.415 196.355,63.85 209.53,63.85 C217.265,63.85 223.13,60.365 226.955,54.415 L219.645,48.72 C217.605,52.12 214.29,54.925 209.615,54.925 C202.05,54.925 197.885,49.06 197.885,41.58 C197.885,34.015 201.88,28.235 209.53,28.235 C214.29,28.235 217.435,30.955 219.39,34.355 L226.785,28.745 C222.96,22.795 217.265,19.31 209.445,19.31 Z M251.905,19.31 C265.08,19.31 271.54,29.17 271.54,41.155 L271.54,44.725 L241.28,44.725 C241.535,51.525 245.615,55.265 252.755,55.265 C257.77,55.265 261.425,53.055 263.38,50.335 L270.435,56.115 C266.185,61.215 260.575,63.85 252.67,63.85 C239.41,63.85 230.91,54.5 230.91,41.665 C230.91,28.745 239.58,19.31 251.905,19.31 Z M251.735,27.47 C245.7,27.47 241.62,31.465 241.28,37.415 L261.51,37.415 C261.255,31.55 257.855,27.47 251.735,27.47 Z" id="Lattice"></path>
                </g>
            </g>
        </g>
    </g>
</svg>