<svg width="90" height="24" viewBox="0 0 90 24" fill="none" xmlns="http://www.w3.org/2000/svg">
<path d="M29.061 9.4941C29.061 7.85366 27.491 6.11141 24.7742 6.11141C21.7234 6.11141 18.3719 8.38539 17.8597 12.922C17.3364 17.5039 20.1423 19.5403 22.9704 19.5403C25.7986 19.5403 27.2795 18.4203 28.7938 16.927C27.491 15.2639 25.8097 16.0332 25.4868 16.2029C25.1305 16.3839 24.674 16.6328 23.7387 16.6328C22.6475 16.6328 21.5341 16.135 21.5341 14.0647C28.5265 13.3633 29.061 11.1345 29.061 9.4941ZM25.5982 9.76562C25.5536 10.2747 25.3532 11.1458 21.8124 11.6323C22.5585 8.93974 23.9837 8.7361 24.6406 8.7361C25.253 8.7361 25.6427 9.22258 25.5982 9.76562ZM13.7511 10.2068C13.7511 10.2068 12.2479 15.0037 12.1254 15.3997C12.0809 14.9924 10.9786 6.38293 10.9786 6.38293C8.41767 6.38293 7.04813 8.23832 6.32438 10.1955C6.32438 10.1955 4.49833 15.0037 4.34245 15.411C4.33131 15.0376 4.06409 10.2521 4.06409 10.2521C3.9082 7.85366 1.74811 6.39424 0 6.39424L2.11555 19.4385C4.79896 19.4272 6.24644 17.5831 7.00359 15.6259C7.00359 15.6259 8.61809 11.3834 8.68489 11.1911C8.69603 11.3721 9.84288 19.4385 9.84288 19.4385C12.5374 19.4385 13.9849 17.7076 14.7643 15.8182L18.5389 6.39424C15.8778 6.39424 14.4748 8.23832 13.7511 10.2068ZM38.9484 6.08879C37.2894 6.08879 36.02 7.00516 34.9511 8.35145V8.34014L35.9087 0.5C33.7041 0.5 31.9114 2.44589 31.5662 5.3421L29.8961 19.3367C31.1654 19.3367 32.5127 18.9634 33.2364 18.013C33.8822 18.8615 34.8509 19.5403 36.2873 19.5403C40.0062 19.5403 42.556 15.1508 42.556 11.0327C42.5337 7.27668 40.7411 6.08879 38.9484 6.08879ZM38.6032 12.8202C38.2135 15.1168 36.9553 16.6781 35.7417 16.6781C34.5169 16.6781 33.9936 16.1237 33.9936 16.1237C34.2274 14.1099 34.3721 12.8768 34.8175 11.8133C35.2629 10.7499 36.3207 9.05288 37.423 9.05288C38.503 9.05288 38.993 10.5123 38.6032 12.8202ZM51.8421 6.39424H49.2478L49.2589 6.25848C49.4371 4.53886 49.8379 3.63379 51.1629 3.48672C52.0648 3.39621 52.4657 2.92105 52.5659 2.40064C52.6438 1.99336 52.8888 0.579193 52.8888 0.579193C47.6778 0.545253 46.0411 2.83055 45.618 6.31505L45.6068 6.39424H45.5512C44.7049 6.39424 43.7696 7.36719 43.6138 8.60034L43.5581 9.05288H45.2951L43.8364 21.2939L43.3911 23.4887C43.4467 23.4887 43.5135 23.5 43.5692 23.5C46.0077 23.4095 47.5665 21.4523 47.9117 18.6126L49.0474 9.05288H49.8602C50.6619 9.05288 51.5972 8.23832 51.7642 6.88072L51.8421 6.39424ZM65.3371 6.16798C62.342 6.16798 59.5138 8.40802 58.6453 11.9265C57.7768 15.4449 59.0907 19.6082 63.4999 19.6082C67.8981 19.6082 70.4367 15.2752 70.4367 11.6663C70.4367 8.07993 68.0428 6.16798 65.3371 6.16798ZM66.5508 12.7071C66.3949 14.3023 65.7046 16.7233 63.8117 16.7233C61.9077 16.7233 62.1749 13.895 62.3642 12.5487C62.5646 11.1119 63.3552 9.06419 65.0588 9.06419C66.5842 9.06419 66.7289 10.9083 66.5508 12.7071ZM85.2344 10.2068C85.2344 10.2068 83.7313 15.0037 83.6088 15.3997C83.5643 14.9924 82.462 6.38293 82.462 6.38293C79.901 6.38293 78.5315 8.23832 77.8077 10.1955C77.8077 10.1955 75.9817 15.0037 75.8258 15.411C75.8147 15.0376 75.5474 10.2521 75.5474 10.2521C75.3916 7.85366 73.2315 6.39424 71.4834 6.39424L73.5878 19.4385C76.2712 19.4272 77.7187 17.5831 78.4758 15.6259C78.4758 15.6259 80.0903 11.3834 80.146 11.1911C80.1683 11.3721 81.304 19.4385 81.304 19.4385C83.9985 19.4385 85.446 17.7076 86.2254 15.8182L90 6.39424C87.35 6.39424 85.9471 8.23832 85.2344 10.2068ZM54.2917 0.579193L52.1094 18.4656L51.664 20.6717C51.7197 20.6717 51.7865 20.683 51.8421 20.683C54.1915 20.649 55.8617 18.5561 56.1735 15.9201L57.4316 5.65888C57.8102 2.52509 55.973 0.579193 54.2917 0.579193Z" fill="black"/>
</svg>
