<svg xmlns="http://www.w3.org/2000/svg" viewBox="0 0 416.67 77.34"><path d="M244.75,0a2.32,2.32,0,0,1,2.31,2.32V56.5L226.22,77.34H172A2.33,2.33,0,0,1,169.73,75V2.32A2.32,2.32,0,0,1,172,0ZM212.91,26.86a14.18,14.18,0,0,0-3.48-.46l-11.92.11a1,1,0,0,0-.93.93V50.59a1,1,0,0,0,.93.93h5.79a1,1,0,0,0,.92-.93v-5.9h3.24l4.06,6.37a.88.88,0,0,0,.81.46H220a.44.44,0,0,0,.35-.7c-1.28-1.85-4.75-7.29-4.87-7.52l.41-.32a4.7,4.7,0,0,1,.87-.61c3.82-2.54,4.28-7.75,2.08-11.34A9.13,9.13,0,0,0,212.91,26.86Zm-3.48,11.58h-5.21V32.65h5a3.25,3.25,0,0,1,1.74.46,2.5,2.5,0,0,1,1.39,2.43,2.57,2.57,0,0,1-1.51,2.55A3.08,3.08,0,0,1,209.43,38.44Z" style="fill:#fff;fill-rule:evenodd"/><path d="M75.83,77.34a1.54,1.54,0,0,0,1.51-1.51L77.22,1.51A1.53,1.53,0,0,0,75.72,0H1.51A1.53,1.53,0,0,0,0,1.51V75.83a1.53,1.53,0,0,0,1.51,1.51Zm-22-26.86V27.21A.86.86,0,0,0,53,26.4H47.58a.81.81,0,0,0-.69.34L38.55,38.09,30.33,26.74a1,1,0,0,0-.69-.34H24.31a.79.79,0,0,0-.81.81V50.59a.79.79,0,0,0,.81.81h6a.78.78,0,0,0,.81-.81V38.44c.21.34,2.63,3.73,4.7,6.62,1.47,2,2.75,3.86,2.94,4.14,1.73-2.55,3.52-5,5.29-7.39l2.12-2.91V50.48a.79.79,0,0,0,.81.81h6A.79.79,0,0,0,53.83,50.48Z" style="fill:#fff;fill-rule:evenodd"/><path d="M160.69,77.34a1.54,1.54,0,0,0,1.51-1.51h-.12V1.51A1.53,1.53,0,0,0,160.58,0H86.37a1.53,1.53,0,0,0-1.51,1.51V75.83a1.54,1.54,0,0,0,1.51,1.51Zm-24-50a.91.91,0,0,0-.93-.92v.11h-6a.91.91,0,0,0-.92.93V39.83a6.43,6.43,0,0,1-.23,2.08,4.3,4.3,0,0,1-3.71,3.47,6.1,6.1,0,0,1-4.28-.46,4.77,4.77,0,0,1-2.09-2.43,10.65,10.65,0,0,1-.58-3.82V27.44a.91.91,0,0,0-.92-.93h-5.68a1,1,0,0,0-.92.93V38.78h0a18.78,18.78,0,0,0,.23,3.59,10.8,10.8,0,0,0,2.78,5.91A12.59,12.59,0,0,0,122,52a20.59,20.59,0,0,0,4.63-.23,12.22,12.22,0,0,0,6.71-3.24,11.39,11.39,0,0,0,3.36-8.11Z" style="fill:#fff;fill-rule:evenodd"/><path d="M330.3,77.34a1.53,1.53,0,0,0,1.5-1.51V1.51A1.53,1.53,0,0,0,330.3,0H256.09a1.53,1.53,0,0,0-1.51,1.51V75.83a1.54,1.54,0,0,0,1.51,1.51ZM308,50.59,296.84,26.4h-6.95L278.66,50.59a.52.52,0,0,0,.47.81h6.71a1.11,1.11,0,0,0,1-.69l1-2.55h10.77l1,2.55a1.12,1.12,0,0,0,1,.69h6.71C307.84,51.4,308.07,50.94,308,50.59ZM293.13,35.2l2.67,6.94h-5.33Z" style="fill:#fff;fill-rule:evenodd"/><path d="M415.16,77.34a1.54,1.54,0,0,0,1.51-1.51V1.51A1.53,1.53,0,0,0,415.16,0H341a1.53,1.53,0,0,0-1.51,1.51V75.83A1.54,1.54,0,0,0,341,77.34ZM376,44.92V27.32c0-.58-.35-.92-1-.92h-5.67a1,1,0,0,0-.93.92V50.48a1,1,0,0,0,.93.92h17.25a1,1,0,0,0,.92-.92V45.85a1,1,0,0,0-.92-.93Z" style="fill:#fff;fill-rule:evenodd"/><path d="M226.22,77.34H206.77l20-20.15h19.57Z" style="fill:#fff"/><path d="M247.06,56.5H228.54a2.32,2.32,0,0,0-2.32,2.31V77.34Z" style="fill:#fff"/></svg>