<svg width="244" height="24" viewBox="0 0 244 24" fill="none" xmlns="http://www.w3.org/2000/svg">
<path d="M47.0913 22.5194C47.0913 22.3411 47.0913 22.0736 47.0913 21.8954C46.9983 21.8954 40.9535 22.2519 37.9776 22.2519C34.0718 22.2519 28.492 22.1628 28.492 22.1628L2.82491 21.9845C2.82491 21.8954 2.82491 21.5388 2.82491 21.4496L28.585 21.3605C28.585 21.3605 34.1648 21.4496 38.0706 21.4496C41.0465 21.4496 46.9983 21.4496 47.0913 21.4496C47.0913 21.1822 46.9983 20.7364 46.9983 20.3798C46.9053 20.3798 40.9535 20.8256 38.0706 20.8256C34.1648 20.8256 28.585 20.5581 28.585 20.5581H21.9822L13.2405 20.2907H2.91791C2.91791 20.2016 3.01091 19.845 3.01091 19.7558C3.38289 19.845 3.66188 19.9341 4.96383 19.9341C6.63777 19.9341 7.38175 19.5775 7.38175 19.5775C7.38175 19.5775 8.5907 19.9341 10.1716 19.9341C10.9156 19.9341 12.5896 19.2209 13.6125 19.4884C15.2865 19.9341 15.9374 19.2209 15.9374 19.2209C15.9374 19.2209 16.3094 19.6667 17.0534 19.845C17.6114 19.9341 18.3553 19.5775 18.3553 19.5775C18.3553 19.5775 19.2853 20.2016 21.9822 20.2016C25.2371 20.2016 26.167 18.5078 26.167 18.5078H26.26C26.26 18.5078 26.167 18.9535 26.353 19.3101C26.725 20.0233 27.748 20.1124 27.748 20.1124C27.655 18.1512 28.492 16.814 28.492 16.814H28.585L28.399 17.3488C28.027 18.7752 28.678 20.0233 28.678 20.0233L28.9569 19.845C28.9569 19.845 28.678 18.9535 28.9569 17.7054C29.2359 16.4574 29.7009 15.8333 29.7009 15.8333H29.8869C29.8869 15.8333 29.6079 16.814 29.6079 17.5271C29.6079 18.1512 29.9799 19.6667 31.1889 20.1124C32.1188 20.469 32.8628 19.6667 32.8628 19.6667C32.8628 19.6667 34.9087 20.2016 36.5827 20.2016C40.5815 20.2016 41.5115 19.5775 41.5115 19.5775C41.5115 19.5775 41.7905 20.0233 43.8364 20.0233C45.0453 20.0233 45.9753 19.9341 46.5333 19.845C46.7193 19.845 46.8123 19.845 46.9053 19.7558C46.9053 19.3992 46.8123 19.1318 46.7193 18.7752C45.6033 12.8023 41.9765 7.63178 36.9547 4.33333L36.6757 5.13566C41.6045 8.25581 45.2313 13.1589 46.2543 18.9535C45.6963 19.1318 44.8594 19.3992 43.8364 19.3992C42.2555 19.3992 41.8835 18.9535 41.8835 18.9535C41.8835 18.9535 41.3255 19.3101 40.3025 19.3101C39.3726 19.3101 38.7216 18.686 38.7216 18.686C38.7216 18.686 37.7916 19.5775 36.1177 19.5775C34.1648 19.5775 33.1418 18.4186 32.7698 17.8837C32.3978 17.3488 32.2118 16.9031 32.2118 16.9031H32.1188C32.1188 17.0814 32.2118 17.3488 32.3048 17.6163C32.5838 18.3295 32.7698 18.5078 32.8628 18.686C32.9558 18.7752 33.0488 19.0426 32.7698 19.1318C32.5838 19.2209 32.4908 19.0426 32.3978 18.9535C32.3048 18.7752 31.9328 18.3295 31.7468 17.6163C31.4679 16.814 31.4679 16.2791 31.3749 15.8333H31.1889C31.0959 16.1899 31.0959 16.814 31.0959 17.5271C31.1889 18.3295 31.3749 18.8643 31.4679 19.0426C31.4679 19.0426 31.5609 19.1318 31.5609 19.2209C31.5609 19.4884 31.3749 19.5775 31.1889 19.5775C31.0029 19.5775 30.8169 19.3992 30.7239 19.2209C29.8869 17.8837 30.9099 15.2093 31.1889 14.407C31.6538 13.2481 31.7468 12.0891 31.7468 12.0891C31.7468 12.0891 32.3048 11.1977 32.5838 10.5736C32.9558 9.77132 33.2348 9.05814 33.5138 8.7907C33.8858 8.43411 34.5367 7.54264 35.1877 6.38372C35.2807 6.20543 35.8387 4.95736 35.9317 4.68992C36.0247 4.51163 36.1177 4.24419 36.2107 4.06589C36.4897 2.99612 36.7687 1.74806 36.7687 1.56977C36.7687 1.30233 36.3037 1.12403 36.3037 1.12403C36.3037 1.12403 35.8387 0.945736 35.5597 0.945736C35.3737 0.945736 35.1877 1.12403 35.0017 1.21318C34.7227 1.30233 34.6297 1.21318 34.6297 1.21318C34.6297 1.21318 34.2577 1.03488 34.0718 1.12403C33.8858 1.12403 33.6998 1.39147 33.5138 1.39147C33.2348 1.48062 33.1418 1.48062 33.1418 1.48062C33.1418 1.48062 32.8628 1.39147 32.6768 1.39147C32.4908 1.48062 32.3048 1.56977 31.9328 1.83721C29.3289 0.945736 26.632 0.5 23.8421 0.5C11.1016 0.5 0.685993 10.3062 0.5 22.5194C0.5 22.6085 0.5 23.1434 0.5 23.1434H47.0913C47.0913 23.1434 47.0913 22.6085 47.0913 22.5194ZM17.4254 18.062C17.3324 18.062 17.4254 17.9729 17.3324 17.9729C17.9834 16.0116 19.4713 12 21.8892 8.96899C22.1682 9.05814 22.3542 9.23643 22.6332 9.32558C20.8662 11.1977 18.5413 14.8527 17.4254 18.062ZM18.8203 18.686C19.2853 16.9031 20.4943 13.1589 23.0982 9.59302C23.3772 9.77132 23.5631 9.86047 23.8421 10.0388C22.0752 12.2674 19.9363 15.8333 19.0063 18.7752C18.9133 18.7752 18.9133 18.686 18.8203 18.686ZM20.6803 19.1318C20.5873 19.1318 20.6803 19.1318 20.5873 19.1318C20.9592 17.7054 21.9822 13.9612 24.4001 10.3062C24.6791 10.4845 24.8651 10.5736 25.0511 10.7519C23.3772 13.1589 21.5172 16.4574 20.6803 19.1318ZM22.4472 19.1318C22.3542 19.1318 22.3542 19.1318 22.3542 19.1318C22.7262 17.7946 23.5631 14.4961 25.6091 11.1977C25.8881 11.376 26.167 11.5543 26.26 11.7326C24.7721 13.8721 23.1912 16.7248 22.4472 19.1318ZM28.585 13.1589C28.12 13.1589 27.469 12.9806 27.283 12.624C27.376 13.2481 28.12 13.7829 28.771 13.7829C28.585 13.7829 28.492 13.8721 28.306 13.8721C27.469 13.8721 26.725 13.1589 26.725 12.3566C26.725 12.2674 26.725 12.0891 26.725 12C27.376 12.5349 28.771 13.2481 29.6079 12.1783V12.2674C29.5149 12.7132 29.0499 13.1589 28.585 13.1589ZM31.1889 9.68217C31.1889 9.94961 31.0029 10.0388 30.8169 10.1279C30.7239 10.2171 30.4449 10.3062 30.4449 10.3953H30.3519C30.3519 10.3953 30.2589 10.3062 30.1659 10.3062C30.1659 10.2171 30.1659 10.2171 30.1659 10.2171V10.1279V9.94961C30.1659 9.94961 30.0729 9.77132 30.1659 9.59302C30.1659 9.32558 30.4449 9.14729 30.4449 9.14729H30.5379C30.5379 9.14729 30.4449 9.32558 30.3519 9.50388C30.3519 9.59302 30.2589 9.86047 30.3519 10.0388V10.2171L30.4449 10.3062L30.5379 10.2171C30.7239 10.1279 30.7239 10.0388 30.7239 10.0388C30.7239 10.0388 30.5379 9.86047 30.6309 9.68217C30.7239 9.50388 31.0029 9.50388 31.0029 9.50388C31.0959 9.23643 31.0029 9.05814 31.0029 9.05814L31.1889 9.14729C31.0959 9.05814 31.1889 9.32558 31.1889 9.68217ZM32.3978 2.10465C32.6768 2.0155 32.7698 1.83721 33.0488 1.74806C33.3278 1.65891 33.5138 1.74806 33.6998 1.74806C33.8858 1.74806 34.1648 1.48062 34.3507 1.48062C34.5367 1.48062 34.6297 1.56977 34.8157 1.56977C34.9087 1.74806 35.4667 1.39147 35.5597 1.39147C35.6527 1.39147 36.0247 1.39147 35.9317 1.74806C35.8387 2.0155 35.6527 2.81783 35.2807 3.8876C35.1877 4.15504 35.0017 4.51163 34.8157 4.86822C34.6297 5.22481 34.4437 5.67054 34.1648 6.02713C33.1418 7.63178 32.1188 7.27519 30.1659 8.16667C28.585 8.87985 27.934 9.32558 27.748 9.59302C27.562 9.41473 27.469 9.41473 27.283 9.32558C27.562 9.05814 28.213 8.6124 29.5149 7.98837C30.9099 7.27519 33.2348 6.38372 33.6998 5.5814C33.6998 5.49225 33.6998 5.49225 33.6998 5.4031C33.1418 5.75969 32.6768 5.93798 32.4908 6.11628C30.2589 7.18605 29.4219 7.45349 28.399 7.98837C27.934 8.25581 27.19 8.6124 26.725 8.96899C26.632 8.87985 26.446 8.7907 26.353 8.70155C26.818 8.34496 27.469 7.98837 28.12 7.63178C29.1429 7.18605 29.9799 6.74031 32.3978 5.4031C32.5838 5.31395 33.7928 4.60078 34.7227 3.8876C34.7227 3.79845 34.7227 3.7093 34.8157 3.62016C33.9788 4.06589 31.2819 5.49225 30.7239 5.75969C28.492 6.82946 28.585 6.74031 27.562 7.27519C26.911 7.63178 26.26 7.98837 25.7951 8.34496C25.7021 8.25581 25.5161 8.16667 25.4231 8.07752C25.9811 7.72093 26.446 7.36434 27.19 7.00775C28.213 6.47287 28.306 6.38372 30.6309 5.31395C31.7468 4.77907 33.7928 3.44186 34.9087 2.81783C34.9087 2.72868 34.9087 2.72868 34.9087 2.63954C33.7928 3.26357 30.5379 4.86822 30.0729 5.13566C27.841 6.11628 27.562 6.20543 26.539 6.74031C25.9811 7.00775 25.4231 7.36434 24.9581 7.63178C24.8651 7.54264 24.7721 7.45349 24.6791 7.36434C25.0511 7.0969 25.7021 6.65116 26.539 6.20543C27.562 5.67054 27.748 5.5814 29.9799 4.51163C30.2589 4.42248 31.3749 3.79845 32.3978 3.17442C32.6768 2.99612 33.0488 2.81783 33.3278 2.63954C33.6068 2.46124 33.7928 2.28295 33.9788 2.1938L33.8858 2.10465C33.4208 2.28295 32.7698 2.63953 32.5838 2.72868C31.3749 3.35271 29.8869 4.06589 29.4219 4.24419C27.19 5.31395 26.911 5.4031 25.8881 5.93798C25.3301 6.20543 24.6791 6.56202 24.3071 6.9186C24.2141 6.82946 24.1211 6.74031 24.0281 6.65116C24.4931 6.29457 25.1441 5.84884 25.8881 5.49225C26.911 4.95736 27.097 4.86822 29.3289 3.79845C29.7009 3.62016 30.0729 3.44186 30.3519 3.26357C30.4449 3.26357 31.4679 2.72868 32.3978 2.10465ZM24.7721 1.56977C26.911 1.56977 29.0499 1.83721 31.0029 2.46124C30.6309 2.72868 30.0729 2.99612 29.3289 3.35271C26.725 4.60078 26.446 4.68992 25.3301 5.22481C24.5861 5.5814 24.0281 5.93798 23.5631 6.29457C23.5631 6.29457 23.0982 5.67054 22.8192 5.49225C22.5402 5.31395 21.8892 5.13566 21.7032 5.04651C21.3312 4.86822 21.2382 4.68992 20.6803 4.51163C20.2153 4.33333 19.8433 4.42248 19.5643 4.42248C19.2853 4.33333 19.0063 4.24419 18.5413 4.24419C18.2623 4.24419 17.8904 4.42248 17.6114 4.42248C17.2394 4.42248 16.9604 4.33333 16.6814 4.33333C16.4024 4.42248 16.0304 4.68992 15.6584 4.68992C15.3794 4.77907 15.0075 4.68992 14.8215 4.68992C14.6355 4.77907 14.1705 5.13566 13.8915 5.22481C13.7055 5.31395 13.1475 5.31395 13.2405 5.75969C13.2405 6.11628 14.0775 6.20543 14.0775 6.20543C14.0775 6.20543 17.7044 6.65116 21.2382 8.43411C20.7732 9.05814 20.2153 9.68217 19.8433 10.3953C19.5643 10.3062 19.1923 10.2171 19.0063 10.2171C18.6343 10.2171 18.2623 10.3953 17.9834 10.3062C17.4254 10.3062 17.4254 10.2171 16.7744 10.3062C16.3094 10.3953 16.3094 10.4845 15.9374 10.5736C15.6584 10.6628 15.3794 10.5736 14.9145 10.6628C14.7285 10.7519 14.3565 11.1085 14.0775 11.1977C13.8915 11.2868 13.5195 11.2868 13.2405 11.4651C13.0545 11.6434 13.0545 11.8217 12.5896 12C12.3106 12.1783 12.1246 12.0891 11.8456 12.3566C11.6596 12.7132 11.6596 12.9806 11.1946 13.3372C10.6366 13.7829 10.6366 14.1395 10.7296 14.2287C10.9156 14.5853 11.7526 14.2287 11.7526 14.2287C11.7526 14.2287 14.7285 13.2481 18.2623 13.0698C17.3324 14.8527 16.5884 16.5465 16.1234 17.7054C16.0304 17.9729 15.9374 18.2403 15.8444 18.4186C15.7514 18.4186 15.7514 18.4186 15.7514 18.4186C15.5654 18.2403 15.5654 17.9729 15.6584 17.3488C15.7514 16.7248 16.3094 15.4767 16.4954 15.2093H16.3094C16.1234 15.4767 15.5654 16.4574 15.4724 16.6357C15.2865 16.9923 15.1935 17.0814 14.8215 17.8837C14.7285 18.062 14.5425 18.4186 14.2635 18.4186C14.0775 18.4186 13.8915 18.3295 13.8915 18.1512C13.8915 18.062 13.9845 17.8837 14.0775 17.8837C14.5425 17.1705 14.9145 16.4574 15.0075 16.1008H14.8215C14.8215 16.1008 13.5195 18.9535 10.7296 18.9535C9.79966 18.9535 8.77669 18.5078 8.77669 18.5078C8.77669 18.5078 7.47474 19.0426 5.70781 19.0426C4.31286 19.0426 3.47589 18.7752 3.1039 18.686C5.05683 9.05814 13.7055 1.56977 24.7721 1.56977Z" fill="white"/>
<path d="M89.3113 22.6085L89.1253 22.5194C88.0093 21.9845 87.6373 20.469 87.0794 19.1318L81.4066 4.68994H76.0128V5.13568L76.2918 5.22483C76.2918 5.22483 76.5708 5.31397 76.6638 5.40312C76.9427 5.58141 77.2217 5.938 76.8497 6.82948C76.8497 7.27521 76.6638 7.6318 76.6638 7.6318L72.1999 19.1318C71.7349 20.3799 71.3629 21.9845 70.247 22.5194L69.875 22.6977V23.1434H75.9198V22.6977L75.4548 22.5194C74.8968 22.3411 74.8038 21.8062 75.3618 20.2907L76.0128 18.2403H82.4295C82.6155 18.6861 82.8015 19.3101 83.0805 20.2016C83.3595 21.093 83.8245 22.252 83.1735 22.6085L82.8015 22.7868V23.2326H89.3113V22.6085ZM81.4996 15.2093H77.2217L79.3607 9.5039L81.4996 15.2093Z" fill="white"/>
<path d="M128.557 4.68994V5.13568L129.022 5.31397C129.766 5.58141 129.673 7.27521 129.673 8.34498V19.4884C129.673 20.3799 129.673 22.252 129.022 22.5194L128.557 22.6977V23.1434H134.694V22.6977L134.229 22.5194C133.485 22.252 133.578 20.3799 133.578 19.4884V8.34498C133.578 6.82948 133.764 5.49227 134.229 5.31397L134.694 5.13568V4.68994H128.557Z" fill="white"/>
<path d="M105.492 4.68994V5.13568L105.957 5.31397C106.701 5.58141 106.608 7.27521 106.608 8.34498V19.4884C106.608 20.3799 106.608 22.252 105.957 22.5194L105.492 22.6977V23.1434H111.63V22.6977L111.165 22.5194C110.421 22.252 110.514 20.3799 110.514 19.4884V8.34498C110.514 6.82948 110.7 5.49227 111.165 5.31397L111.63 5.13568V4.68994H105.492Z" fill="white"/>
<path d="M70.992 3.0853C69.5971 1.74809 67.4581 1.03491 65.1332 1.03491H57.2285V1.48065L57.6005 1.5698C58.6235 2.01553 58.5305 4.42251 58.5305 6.20545V17.8837V18.3295C58.5305 19.6667 58.5305 22.0737 57.6005 22.4303L57.2285 22.6086V23.0543H64.4823V22.6086L64.2033 22.4303C62.9013 21.6279 62.9013 19.845 62.9013 17.9729V14.0504L63.6453 14.3179C63.6453 14.3179 64.8542 14.7636 65.9702 14.7636C69.3181 14.7636 72.9449 12.5349 72.9449 7.72096C72.9449 5.93801 72.294 4.33336 70.992 3.0853ZM63.9243 13.0698L63.2733 13.1589H62.9013V4.86825C63.3663 4.7791 63.9243 4.7791 64.6682 4.7791C66.1562 4.7791 67.3651 5.13569 68.0161 5.84887C68.6671 6.4729 68.9461 7.27522 68.9461 8.43414C68.9461 11.1977 66.3422 12.8915 63.9243 13.0698Z" fill="white"/>
<path d="M169.848 1.0349H166.593H157.293V1.56978L157.851 1.74808C158.688 2.10467 158.688 4.15505 158.688 5.31397V18.6861C158.688 19.7558 158.688 21.9845 157.851 22.3411L157.293 22.5194V23.0543H164.268V22.5194L163.71 22.3411C162.873 21.9845 162.873 19.845 162.873 18.6861V14.3178H166.965C166.965 14.3178 168.732 14.1395 169.011 14.8527L169.104 15.1202L169.569 15.2093L169.848 9.32559H169.197L169.104 9.68218C168.918 10.1279 167.337 10.3062 166.872 10.2171H162.78C162.78 8.25583 162.78 5.84885 162.78 4.77908H167.802C169.011 4.77908 169.662 5.04653 169.848 5.67056L169.94 6.02714H170.498L171.8 0.767456C171.986 0.945751 170.312 1.0349 169.848 1.0349Z" fill="white"/>
<path d="M103.446 18.1511L103.353 18.2403C103.167 18.4186 102.981 18.5077 102.981 18.5077C101.865 19.2209 100.005 20.0232 98.1455 20.0232C96.6576 20.0232 95.4486 19.5775 94.4256 18.686C93.2167 17.5271 92.5657 15.655 92.5657 13.5155C92.5657 10.1279 94.6116 7.81003 97.5875 7.81003C98.9825 7.81003 100.377 8.25577 101.772 9.14724L102.144 9.41468L102.888 9.86042V9.05809V5.40306V5.04647L102.33 4.95732C100.47 4.51158 98.9825 4.24414 97.6805 4.24414C95.0766 4.24414 92.8447 5.13561 91.1708 6.74027C89.4038 8.43406 88.3809 11.0193 88.3809 13.872C88.3809 16.8139 89.3108 19.2209 91.0778 20.9147C92.8447 22.6085 95.4486 23.5 98.4245 23.5C99.9124 23.5 101.307 23.2325 102.423 22.6085H102.516L102.702 22.5193L102.795 22.341L104.097 18.062H103.446V18.1511Z" fill="white"/>
<path d="M150.968 18.1511L150.41 18.5077C149.294 19.2209 147.434 20.0232 145.574 20.0232C144.086 20.0232 142.877 19.5775 141.854 18.686C140.645 17.5271 139.994 15.655 139.994 13.5155C139.994 10.1279 142.04 7.81003 145.016 7.81003C146.411 7.81003 147.806 8.25577 149.201 9.14724L150.317 9.86042V5.40306V5.04647L149.852 4.95732C147.992 4.51158 146.504 4.24414 145.202 4.24414C142.598 4.24414 140.366 5.13561 138.692 6.74027C136.925 8.43406 135.902 11.0193 135.902 13.872C135.902 16.8139 136.832 19.2209 138.599 20.9147C140.366 22.6085 142.97 23.5 145.946 23.5C147.434 23.5 148.829 23.2325 149.945 22.6085L150.224 22.5193L151.619 18.062H150.968V18.1511Z" fill="white"/>
<path d="M125.301 4.68989H120.187H114.049V5.13563L114.514 5.31392C115.258 5.58136 115.165 7.27516 115.165 8.34493V19.4883C115.165 20.3798 115.165 22.2519 114.514 22.5194L114.049 22.6976V23.1434H120.187V22.6976L119.722 22.5194C118.978 22.2519 119.071 20.3798 119.071 19.4883V15.8333H122.419C122.419 15.8333 123.906 15.7442 124.092 16.279L124.185 16.5465L124.557 16.6356L124.836 11.7325H124.371L124.278 12C124.185 12.3566 122.791 12.5349 122.419 12.4457H118.978C118.978 10.8411 118.978 8.79067 118.978 7.89919H123.534C124.557 7.89919 125.115 8.16664 125.301 8.61237L125.394 8.87981H125.859L126.975 4.5116C127.161 4.5116 125.673 4.68989 125.301 4.68989Z" fill="white"/>
<path d="M204.162 4.68998V5.13571L204.534 5.31401C205.371 5.84889 205.464 6.65122 205.464 8.16672V16.6357C202.86 13.0698 197.095 4.60083 197.095 4.60083H192.631V5.04657L193.003 5.22486C193.84 5.75975 193.933 6.65122 193.933 8.16672V19.221C193.933 20.7365 193.933 21.8954 193.003 22.4303L192.724 22.6086V23.0543H198.397V22.6086L198.025 22.4303C197.188 22.252 197.188 20.7365 197.188 19.221V11.1977L202.767 18.8644C203.79 20.2908 205.464 22.3411 207.231 22.876C208.626 23.3218 208.905 23.2326 208.905 23.2326V8.25587C208.905 6.74037 208.905 5.84889 209.835 5.31401L210.207 5.13571V4.68998H204.162Z" fill="white"/>
<path d="M227.039 7.3644C225.179 5.58145 222.389 4.60083 218.949 4.60083H211.974V5.04657L212.346 5.13571L212.532 5.22486C213.369 5.4923 213.183 7.3644 213.183 8.34502V19.4884C213.183 20.8256 213.183 21.9846 212.16 22.6086L211.881 22.7869V23.1435H218.763C225.086 23.1435 229.55 19.3101 229.55 13.783C229.55 11.1977 228.713 8.96905 227.039 7.3644ZM223.784 18.5078C222.482 19.6667 220.716 20.3799 218.484 20.3799C218.019 20.3799 217.74 20.2908 217.182 20.2016V7.72099C217.926 7.54269 218.298 7.45354 218.949 7.45354C221.088 7.45354 222.668 7.98843 223.784 9.0582C224.9 10.128 225.458 11.9109 225.458 14.0504C225.458 15.8334 224.807 17.438 223.784 18.5078Z" fill="white"/>
<path d="M189.189 19.7558V8.16669C189.189 6.82948 189.189 5.58141 190.119 5.31397L190.491 5.22483L190.212 4.68994H183.888V5.13568L184.26 5.22483C185.19 5.58141 185.097 7.00777 185.097 7.98839V16.814C185.097 17.7054 185.097 18.1512 184.632 18.7752C183.888 19.7558 182.493 20.3799 181.005 20.3799C179.797 20.3799 178.96 20.1124 178.309 19.4884C177.472 18.7752 177.1 17.438 177.1 15.7442V7.89924C177.1 6.82948 177.1 5.40312 177.937 5.13568L178.309 5.04653V4.68994H171.799V5.13568L172.171 5.22483C173.008 5.49227 173.101 7.18607 173.008 8.52328V16.1008C173.008 17.9729 173.008 19.845 174.589 21.5388C175.891 22.876 177.844 23.5892 180.076 23.5892C181.656 23.5892 183.609 22.7868 185.004 21.7171V23.1434H190.305V22.6977L189.933 22.6085C189.189 22.252 189.096 21.093 189.189 19.7558Z" fill="white"/>
<path d="M243.5 17.5272C243.5 18.9535 242.849 20.3799 241.64 21.4497C240.245 22.7869 238.292 23.5 236.153 23.5C234.479 23.5 232.898 23.2326 231.41 22.6977H231.317L231.131 22.6086V22.4303V22.3411L230.387 19.0427L230.294 18.5078L230.201 18.0621H230.666L231.317 18.7752C232.712 20.0233 234.665 20.5582 236.432 20.5582C237.641 20.5582 239.408 19.7559 239.408 18.4186C239.408 16.9031 237.92 16.19 235.967 15.2985C233.642 14.2287 230.852 12.8915 230.852 9.50392C230.852 5.67058 234.572 4.33337 237.734 4.33337C239.129 4.33337 240.431 4.51167 241.64 4.9574H241.733L242.012 5.04655V5.31399V5.40314V7.72097V8.5233V9.05818L241.361 8.61244L240.71 8.25585C240.152 7.89927 238.757 7.36438 237.548 7.36438C237.083 7.36438 236.06 7.45353 235.409 8.07756C235.13 8.345 234.944 8.70159 234.944 9.23647C234.944 10.5737 236.618 11.376 238.385 12.1783C240.617 13.2481 243.5 14.5853 243.5 17.5272Z" fill="white"/>
</svg>
