<svg xmlns="http://www.w3.org/2000/svg" viewBox="0 0 328 116"><path d="M54.86,34A15.87,15.87,0,0,0,39,18.15H18.09V50.06H39A15.83,15.83,0,0,0,54.86,34ZM39,0a34,34,0,0,1,0,68.06H18.09v46.73H0V0Zm52.6,66.85h40.82A21,21,0,0,0,112,51.12C102,51.12,93.8,57.5,91.55,66.85Zm20.58-31.76c23.4,0,39.74,18.63,39.74,45.29v1.44H91.55c3.21,10,11.88,16.64,22.09,16.64,10.64,0,18.67-6.7,21.62-9.58l1.12-1.08,10.87,13.26-.94.92c-9.16,9-20.81,14-32.82,14-23,0-40.95-18.23-40.95-41.51A39.07,39.07,0,0,1,112.13,35.09Zm69.3-22.84v24h24.73V52.48H181.43v34a10.08,10.08,0,0,0,10.18,10.21h14.25v18.15H191.31c-17,0-28-11.19-28-28.51v-74Zm94.26,63.14a22.25,22.25,0,1,0-22.25,22.46A22.31,22.31,0,0,0,275.69,75.39Zm2-31.39V36.3h15.84v78.49H277.8v-7.7A37.76,37.76,0,0,1,253.29,116a40.46,40.46,0,1,1,0-80.91A38.17,38.17,0,0,1,277.65,44Zm32.26,70.79V6.05H328V114.79Z" style="fill-rule:evenodd"/></svg>