<?xml version="1.0" encoding="utf-8"?>
<!-- Generator: Adobe Illustrator 24.1.0, SVG Export Plug-In . SVG Version: 6.00 Build 0)  -->
<svg version="1.1" id="Layer_1" xmlns="http://www.w3.org/2000/svg" xmlns:xlink="http://www.w3.org/1999/xlink" x="0px" y="0px"
	 viewBox="0 0 166 49.4" style="enable-background:new 0 0 166 49.4;" xml:space="preserve">
<style type="text/css">
	.st0{fill:#FFFFFF;}
</style>
<polygon class="st0" points="41.2,49.4 133.5,41.4 33.2,41.4 "/>
<path class="st0" d="M154.9,8.4c-1.9,0-3.7,0.6-5.3,1.7V9h-6.2v27.2h6.2V20.3c-0.2-2.8,2-5.2,4.8-5.4s5.2,2,5.4,4.8
	c0,0.2,0,0.4,0,0.6v16h6.2v-16C166,13.7,161.5,8.4,154.9,8.4z"/>
<path class="st0" d="M129.1,8.3c-7.2,0-12.3,6.3-12.3,14.3c0,8.4,6.4,14.3,12.9,14.3c3.3,0,7.4-1.1,10.9-6.1l-5.5-3.2
	c-4.2,6.2-11.3,3.1-12.1-3.2h17.8C142.4,14.8,136.1,8.3,129.1,8.3z M123.4,19.1c1.3-6.3,9.9-6.7,11.1,0H123.4z"/>
<path class="st0" d="M103.6,27.2c-0.2,5.1,3.7,9.5,8.9,9.7c0.1,0,0.2,0,0.3,0c2.1-0.1,4.2-0.7,6-1.7l-4-5.4
	c-0.6,0.4-1.3,0.7-2.1,0.7c-1.7,0-3-1.4-2.9-3.1c0-0.1,0-0.1,0-0.2V15.5h5.3V9h-5.3V2.2h-6.2V9h-3.3v6.5h3.3V27.2z"/>
<path class="st0" d="M86.7,36.9c1.9,0,3.7-0.6,5.3-1.7v1h6.2V9H92v16c0.2,2.8-2,5.2-4.8,5.4c-2.8,0.2-5.2-2-5.4-4.8
	c0-0.2,0-0.4,0-0.6V9h-6.2v16C75.6,31.6,80.1,36.9,86.7,36.9z"/>
<polygon class="st0" points="58.5,25.1 67.7,36.3 76.3,36.3 64,21.8 74.6,9 66,9 58.5,18.5 58.5,0 52.2,0 52.2,36.3 58.5,36.3 "/>
<path class="st0" d="M42.5,35v1.2h6.2V9h-6.2v1.2c-1.7-1.2-3.7-1.9-5.8-1.9c-7,0-12.4,6.4-12.4,14.3s5.3,14.3,12.4,14.3
	C38.8,36.9,40.8,36.2,42.5,35z M30.6,22.7c0-4.3,2.5-7.7,6-7.7s5.9,3.4,5.9,7.7s-2.4,7.7-5.9,7.7S30.6,27,30.6,22.7z"/>
<path class="st0" d="M22.3,13.9c0-6.5-5.2-11.7-11.7-11.7H0v34h6.5V25.7H11l7.9,10.5H27l-9.6-12.7C20.5,21.3,22.3,17.7,22.3,13.9z
	 M10.7,19.3H6.5V8.7h4.2c2.9,0,5.3,2.4,5.3,5.3C16,16.9,13.6,19.3,10.7,19.3z"/>
</svg>
