<svg xmlns="http://www.w3.org/2000/svg" viewBox="0 0 166 49.4"><polygon points="41.2 49.4 133.5 41.4 33.2 41.4 41.2 49.4"/><path d="M154.9,8.4a9.83,9.83,0,0,0-5.3,1.7V9h-6.2V36.2h6.2V20.3a5.11,5.11,0,1,1,10.2,0v16H166v-16C166,13.7,161.5,8.4,154.9,8.4Z"/><path d="M129.1,8.3c-7.2,0-12.3,6.3-12.3,14.3,0,8.4,6.4,14.3,12.9,14.3,3.3,0,7.4-1.1,10.9-6.1l-5.5-3.2c-4.2,6.2-11.3,3.1-12.1-3.2h17.8C142.4,14.8,136.1,8.3,129.1,8.3Zm-5.7,10.8c1.3-6.3,9.9-6.7,11.1,0Z"/><path d="M103.6,27.2a9.29,9.29,0,0,0,9.2,9.7,13.06,13.06,0,0,0,6-1.7l-4-5.4a3.77,3.77,0,0,1-2.1.7,3,3,0,0,1-2.9-3.3V15.5h5.3V9h-5.3V2.2h-6.2V9h-3.3v6.5h3.3Z"/><path d="M86.7,36.9A9.83,9.83,0,0,0,92,35.2v1h6.2V9H92V25a5.11,5.11,0,1,1-10.2,0V9H75.6V25C75.6,31.6,80.1,36.9,86.7,36.9Z"/><polygon points="58.5 25.1 67.7 36.3 76.3 36.3 64 21.8 74.6 9 66 9 58.5 18.5 58.5 0 52.2 0 52.2 36.3 58.5 36.3 58.5 25.1"/><path d="M42.5,35v1.2h6.2V9H42.5v1.2a10.05,10.05,0,0,0-5.8-1.9c-7,0-12.4,6.4-12.4,14.3s5.3,14.3,12.4,14.3A9.82,9.82,0,0,0,42.5,35ZM30.6,22.7c0-4.3,2.5-7.7,6-7.7s5.9,3.4,5.9,7.7-2.4,7.7-5.9,7.7S30.6,27,30.6,22.7Z"/><path d="M22.3,13.9A11.71,11.71,0,0,0,10.6,2.2H0v34H6.5V25.7H11l7.9,10.5H27L17.4,23.5A11.61,11.61,0,0,0,22.3,13.9ZM10.7,19.3H6.5V8.7h4.2a5.3,5.3,0,0,1,0,10.6Z"/></svg>