<svg width="150" height="150" viewBox="0 0 150 150" fill="none" xmlns="http://www.w3.org/2000/svg">
<path d="M62.2819 57.9024V80.9337C59.4979 80.1694 56.5848 80.0651 53.757 80.6286C50.9292 81.192 48.259 82.4089 45.943 84.1894C43.627 85.97 41.7243 88.2689 40.3751 90.9167C39.0259 93.5645 38.2646 96.4937 38.1474 99.4885C37.989 102.067 38.3625 104.651 39.2429 107.067C40.1233 109.483 41.4902 111.674 43.2517 113.495C45.0132 115.315 47.1285 116.722 49.4555 117.62C51.7825 118.519 54.2673 118.889 56.743 118.705C70.4835 118.705 75.3386 108.655 75.3386 99.2289V8H97.2125C100.933 32.0907 112.498 37.681 128 40.2647V63.3462C128 63.3462 109.61 61.9852 97.8319 52.7393V98.3369C97.8198 118.969 86.0704 142 56.9079 142C29.8451 142 16 118.131 16 98.1234C16.1726 92.1955 17.5503 86.373 20.0423 81.0399C22.5343 75.7068 26.084 70.9842 30.4573 67.1837C34.8306 63.3831 39.9281 60.5908 45.4137 58.991C50.8994 57.3912 56.6484 57.0202 62.2819 57.9024V57.9024Z" fill="white"/>
</svg>
