<svg id="Layer_1" data-name="Layer 1" xmlns="http://www.w3.org/2000/svg" xmlns:xlink="http://www.w3.org/1999/xlink" viewBox="0 0 24 24"><defs><style>.cls-1{clip-rule:evenodd;}.cls-2,.cls-4{fill-rule:evenodd;}.cls-3{clip-path:url(#clip-path);}.cls-4{fill:#fff;}</style><clipPath id="clip-path"><polygon class="cls-1" points="201.85 -98.9 196 -103.82 196 -99.85 179.85 -99.85 179.85 -97.92 196 -97.92 196 -94 201.85 -98.9"/></clipPath></defs><title>24-twitter</title><polygon class="cls-2" points="201.85 -98.9 196 -103.82 196 -99.85 179.85 -99.85 179.85 -97.92 196 -97.92 196 -94 201.85 -98.9"/><g class="cls-3"><rect x="-997.15" y="-6179.82" width="1440" height="8007"/></g><path class="cls-4" d="M21,6.66a6.9,6.9,0,0,1-2,.56,3.54,3.54,0,0,0,1.53-2,6.93,6.93,0,0,1-2.21.86A3.46,3.46,0,0,0,15.77,5a3.51,3.51,0,0,0-3.49,3.53,3.59,3.59,0,0,0,.09.81A9.86,9.86,0,0,1,5.18,5.65a3.57,3.57,0,0,0,1.08,4.72,3.44,3.44,0,0,1-1.58-.44v0a3.53,3.53,0,0,0,2.8,3.47,3.45,3.45,0,0,1-1.57.06,3.5,3.5,0,0,0,3.26,2.45,6.94,6.94,0,0,1-4.33,1.51,7.07,7.07,0,0,1-.83,0A9.78,9.78,0,0,0,9.35,19,9.93,9.93,0,0,0,19.27,8.94q0-.23,0-.46A7.14,7.14,0,0,0,21,6.66"/></svg>