<svg xmlns="http://www.w3.org/2000/svg" viewBox="0 0 108.99 33.05"><path d="M70.58,7.64a8.83,8.83,0,1,0,8.75,8.79,8.77,8.77,0,0,0-8.75-8.79Zm.07,14.05A5.08,5.08,0,0,1,67,20.21a5.12,5.12,0,1,1,8.72-3.66,5.26,5.26,0,0,1-5.09,5.14ZM90,11.8a4.51,4.51,0,0,0-4.45,4.59l0,8.39-3.81,0L81.69,8.13H85.5l0,2.61a6.07,6.07,0,0,1,4.89-2.64H91.5v3.7ZM52,8.28,54.85,19.7l3-11.45,3.81,0-4.71,16.7h-3.7l-3-11.64L47.36,25l-3.71,0-5-16.64,3.71,0L45.7,19.75,48.37,8.3Zm50.67,7.38A8.86,8.86,0,0,0,107.06,8l-3.81,0a5.08,5.08,0,0,1-5,5.14h-.55L97.66,0,93.85,0,94,24.74l3.81,0,0-7.84h.44a1,1,0,0,1,1,.54l5.37,7.27,4.46,0Z"/><path d="M29.85,7.84c-4.14,0-7.28,2.75-8.46,7.11A38.41,38.41,0,0,1,17,5.5l-4.35,0,0,11.54a4.14,4.14,0,0,1-8.28,0l0-11.54L0,5.58.05,17.12a8.54,8.54,0,0,0,8.54,8.57A8.53,8.53,0,0,0,17,17v-2a36.21,36.21,0,0,0,3.19,5.21L17.55,33.05,22,33l1.92-9.27a11,11,0,0,0,6,1.72,8.83,8.83,0,0,0-.08-17.65ZM29.91,21A7.73,7.73,0,0,1,25,19.07l.43-1.74v-.1c.32-1.85,1.28-5,4.55-5a4.37,4.37,0,0,1,4.38,4.33A4.64,4.64,0,0,1,29.91,21Z"/></svg>