<svg id="Layer_1" data-name="Layer 1" xmlns="http://www.w3.org/2000/svg" xmlns:xlink="http://www.w3.org/1999/xlink" viewBox="0 0 24 24"><defs><style>.cls-1{clip-rule:evenodd;}.cls-2{fill-rule:evenodd;}.cls-3{clip-path:url(#clip-path);}.cls-4{fill:#fff;}</style><clipPath id="clip-path"><polygon class="cls-1" points="201.85 -59.9 196 -64.82 196 -60.85 179.85 -60.85 179.85 -58.92 196 -58.92 196 -55 201.85 -59.9"/></clipPath></defs><title>24-wolfdew</title><polygon class="cls-2" points="201.85 -59.9 196 -64.82 196 -60.85 179.85 -60.85 179.85 -58.92 196 -58.92 196 -55 201.85 -59.9"/><g class="cls-3"><rect x="-997.15" y="-6140.82" width="1440" height="8007"/></g><path class="cls-4" d="M17.1,9.78s-1.54,4.75-1.66,5.15c0-.4-1.17-8.93-1.17-8.93-2.63,0-4,1.83-4.78,3.78,0,0-1.88,4.76-2,5.16,0-.37-.29-5.11-.29-5.11A4.26,4.26,0,0,0,3,6L5.16,18.93c2.76,0,4.23-1.84,5-3.78,0,0,1.65-4.2,1.72-4.39,0,.18,1.19,8.18,1.19,8.18a5.29,5.29,0,0,0,5.05-3.59L22,6C19.27,6,17.84,7.83,17.1,9.78Z"/></svg>