<svg xmlns="http://www.w3.org/2000/svg" viewBox="0 0 116.82 22.42"><defs><style>.cls-1{fill:#fff;}</style></defs><title>Asset 4</title><g id="Layer_2" data-name="Layer 2"><g id="Layer_1-2" data-name="Layer 1"><g id="Layer_1-2-2" data-name="Layer 1-2"><polygon class="cls-1" points="102.7 0 102.7 22.07 105.92 22.07 105.92 18.14 108.47 15.36 113.18 22.07 116.82 22.07 116.82 22.07 110.74 13.42 116.66 6.96 112.75 6.96 105.92 14.45 105.92 0 102.7 0"/></g><path class="cls-1" d="M27.28,13.21a3.78,3.78,0,0,0-4-3.56h0A4.07,4.07,0,0,0,19,13.21Zm-3.6,6.11a5.86,5.86,0,0,0,4.16-1.62l2.07,2.23a8.15,8.15,0,0,1-6.2,2.44c-5,0-8.3-3.35-8.3-7.87A7.7,7.7,0,0,1,23,6.63h.29c5,0,7.84,3.82,7.59,9.1H19c.42,2.19,2,3.59,4.66,3.59"/><path class="cls-1" d="M63.32,14.48a4.8,4.8,0,0,0-9.59,0,4.81,4.81,0,1,0,9.59.64c0-.21,0-.42,0-.64m-12.78,0a7.55,7.55,0,0,1,7.23-7.85h.36a6.57,6.57,0,0,1,5,2.27V0h3.19V22.07H63.17V19.94a6.49,6.49,0,0,1-5.1,2.43A7.62,7.62,0,0,1,50.5,14.7v-.19"/><path class="cls-1" d="M87,18.86l2.92-1.51a4.32,4.32,0,0,0,3.85,2.21c1.82,0,2.76-.93,2.76-2s-1.69-1.49-3.64-1.88c-2.58-.55-5.25-1.4-5.25-4.51,0-2.38,2.28-4.6,5.86-4.57a6.94,6.94,0,0,1,6.1,3l-2.71,1.48a3.9,3.9,0,0,0-3.39-1.73c-1.73,0-2.61.85-2.61,1.81s1.39,1.4,3.58,1.88c2.49.54,5.32,1.36,5.32,4.5,0,2.13-1.82,4.9-6.13,4.87A7.12,7.12,0,0,1,87,18.89"/><polygon class="cls-1" points="0.21 7 0.21 9.9 9.11 9.9 0 19.15 0 22.12 13.45 22.12 13.45 19.21 4.22 19.21 13.32 9.97 13.32 7 0.21 7"/><path class="cls-1" d="M40.78,6.65c-3.82,0-7,2.48-7,6.59v8.83H37V13.64a3.59,3.59,0,0,1,3.19-4,3.74,3.74,0,0,1,.67,0c2.42,0,3.64,1.48,3.64,4v8.43h3.28V13.24c0-4.11-3.2-6.59-7-6.59"/><path class="cls-1" d="M81.29,13.21a3.77,3.77,0,0,0-4-3.56h0A4.07,4.07,0,0,0,73,13.21Zm-3.6,6.11a5.87,5.87,0,0,0,4.17-1.62l2.06,2.23a8.14,8.14,0,0,1-6.17,2.44c-5,0-8.3-3.35-8.3-7.87A7.7,7.7,0,0,1,77,6.63h.29c5,0,7.84,3.82,7.59,9.1H73c.41,2.19,2,3.59,4.65,3.59"/></g></g></svg>