<svg id="logo_lockups" data-name="logo lockups" xmlns="http://www.w3.org/2000/svg" viewBox="0 0 221.5 42.41"><title>zendesk</title><path d="M147.3,36.63a11.09,11.09,0,0,0,7.9-3.07l3.92,4.22c-2.59,2.66-6.17,4.63-11.75,4.63-9.56,0-15.73-6.34-15.73-14.92A14.63,14.63,0,0,1,146,12.57h.53c9.49,0,14.87,7.22,14.4,17.24H138.47c.8,4.16,3.72,6.81,8.83,6.81M154.14,25c-.6-3.88-2.92-6.74-7.57-6.74a7.71,7.71,0,0,0-8.1,6.74Z"/><polygon points="0 36.32 17.27 18.78 0.41 18.78 0.41 13.27 25.27 13.27 25.27 18.89 8 36.43 25.5 36.43 25.5 41.93 0 41.93 0 36.32"/><path d="M44.89,36.63a11.09,11.09,0,0,0,7.9-3.07l3.92,4.22c-2.59,2.66-6.17,4.63-11.75,4.63-9.56,0-15.73-6.34-15.73-14.92A14.63,14.63,0,0,1,43.57,12.57h.53c9.49,0,14.87,7.22,14.4,17.24H36.06c.8,4.16,3.72,6.81,8.83,6.81M51.73,25c-.6-3.88-2.92-6.74-7.57-6.74A7.71,7.71,0,0,0,36.06,25Z"/><path d="M95.77,27.52c0-9.17,6.85-14.9,14.39-14.9a12.4,12.4,0,0,1,9.55,4.3V0h6.1V41.85h-6.1v-4a12.26,12.26,0,0,1-9.61,4.53A14.45,14.45,0,0,1,95.76,27.82c0-.12,0-.23,0-.34m24.29-.06a9.2,9.2,0,1,0,0,.29v-.29"/><path d="M164.88,35.77l5.52-2.87a8.21,8.21,0,0,0,7.37,4.18c3.45,0,5.24-1.77,5.24-3.78,0-2.29-3.34-2.81-7-3.55-4.89-1-10-2.64-10-8.54,0-4.53,4.31-8.71,11.11-8.66,5.35,0,9.32,2.12,11.57,5.56l-5.05,2.81a7.44,7.44,0,0,0-6.45-3.27c-3.28,0-4.95,1.61-4.95,3.44,0,2.06,2.65,2.64,6.79,3.55,4.72,1,10.07,2.58,10.07,8.54,0,4-3.45,9.29-11.63,9.23-6,0-10.19-2.41-12.6-6.65"/><polygon points="205.68 29.12 200.84 34.39 200.84 41.85 194.74 41.85 194.74 0 200.84 0 200.84 27.4 213.79 13.18 221.22 13.18 209.99 25.45 221.5 41.85 214.6 41.85 205.68 29.12"/><path d="M77.33,12.61c-7.25,0-13.32,4.7-13.32,12.5V41.85h6.22v-16c0-4.7,2.7-7.51,7.31-7.51s6.91,2.81,6.91,7.51v16h6.19V25.1c0-7.8-6.07-12.5-13.32-12.5"/></svg>